<?xml version="1.0" encoding="utf-8"?>
<!-- Generator: Adobe Illustrator 21.1.0, SVG Export Plug-In . SVG Version: 6.00 Build 0)  -->
<svg version="1.1" id="Layer_1" xmlns="http://www.w3.org/2000/svg" xmlns:xlink="http://www.w3.org/1999/xlink" x="0px" y="0px"
	 viewBox="0 0 141.7 141.7" style="enable-background:new 0 0 141.7 141.7;" xml:space="preserve">
<style type="text/css">
	.st0{fill:#231F20;}
	.st1{fill-rule:evenodd;clip-rule:evenodd;fill:#231F20;}
	.st2{fill-rule:evenodd;clip-rule:evenodd;fill:#F48120;}
</style>
<g>
	<g>
		<g>
			<g>
				<path class="st0" d="M50.4,122"/>
			</g>
		</g>
	</g>
	<g>
		<path class="st0" d="M71,0.7c38.7,0,70.1,31.5,70.1,70.1S109.6,141,71,141S0.8,109.5,0.8,70.8S32.3,0.7,71,0.7 M71,0
			C31.8,0,0.1,31.7,0.1,70.8c0,39.1,31.7,70.8,70.8,70.8s70.9-31.7,70.9-70.8C141.8,31.7,110.1,0,71,0L71,0z"/>
	</g>
	<polygon class="st0" points="4.8,67.6 14.3,67.6 13.2,71.5 4.8,70.8 	"/>
	<polygon class="st0" points="137.2,67.6 127.6,67.6 128.7,71.5 137.2,70.8 	"/>
	<polygon class="st0" points="69.4,136.4 69,126.8 72.9,127.8 72.6,136.2 	"/>
	<polygon class="st0" points="69.4,14.3 69,4.7 72.9,5.7 72.6,14.1 	"/>
	<circle class="st0" cx="40.3" cy="17.3" r="1.5"/>
	<circle class="st0" cx="17.3" cy="40.9" r="1.5"/>
	<circle class="st0" cx="14.3" cy="97.9" r="1.5"/>
	<circle class="st0" cx="38.8" cy="126.2" r="1.5"/>
	<circle class="st0" cx="102.5" cy="126.2" r="1.5"/>
	<circle class="st0" cx="124.9" cy="103.6" r="1.5"/>
	<circle class="st0" cx="127.5" cy="42.4" r="1.5"/>
	<circle class="st0" cx="99.4" cy="15.8" r="1.5"/>
</g>
<g>
	<path class="st1" d="M23.4,79.9l23-1.5l4.1,19.5L47,101l-19,1.5L23.4,79.9L23.4,79.9z M29.5,98.6l15.2-11.1l0.8,0.9L33.8,98.6
		L29.5,98.6L29.5,98.6z M26.8,82.8l18-1.4L44.1,85l-14.9,9.5L26.8,82.8L26.8,82.8z"/>
	<path class="st1" d="M54.2,75.5l27.6-2l2.7,3.5l0.2,22.8l-27.6,1.1L54.2,75.5L54.2,75.5z M76.3,96.5l5.7-4.3l1.8,3.1L76.3,96.5
		L76.3,96.5z M58.6,94.3l0.5,3.7l15.4-1.5l7.7-6.7L81.6,77l-3.3,0.6L77.8,80L58.6,94.3L58.6,94.3z M58.4,90.5l0.3,1.6l10.2-8
		l-0.5-1.3L58.4,90.5L58.4,90.5z M73.8,78.1l0.6-1.3l1.9-0.1L73.8,78.1L73.8,78.1z M56.9,77.7l2.9-0.3l-1.7,2.6L56.9,77.7L56.9,77.7
		z"/>
	<path class="st1" d="M94.7,75.4h24.7l1.9,19.3l-2,0.1v2.4l-22.4,0.2L94.7,75.4L94.7,75.4z M97.6,78.2l2.7-0.4l-2.1,3.2L97.6,78.2
		L97.6,78.2z M98.2,82.9l6.4-4.8l2.1-0.1l-6.3,5.7L98.2,82.9L98.2,82.9z M99.3,90.9l14.8-12.1l3.8-0.4l0.3,16.4l-18.9-0.2V90.9
		L99.3,90.9z"/>
	<path class="st1" d="M45,63.7c4-2.5,9.1-3.8,14.9-4.5c1.8-2.2,4.2-3.6,7-4.5l0.5-0.1l-0.1-0.2c-3.2,0.4-6-0.5-8-2.5
		c-3.1-3.1-3.3-6.9-1.3-10.8c1-2,2.6-3.5,4.7-4.5c4.1-2,8.8-1.9,12.9,0c8.1,3.8,8.2,13.1-1.6,17.4c-0.4,0.2-0.8,0.3-1.3,0.5l5.2,2.6
		c7.8,0.5,13.2,1.6,15.4,3.3l0.1,1l-15,0.2l3.4,11.8l-3.5,0.3c-1.7-12.5-4.5-17.8-8.1-17.1c-5.8,0.3-9.1,5.8-9.6,16.9L58,73.9
		L59.2,62l-13.7,3.6L45,63.7L45,63.7z M62.9,41.5c1.7-2,4.2-3.1,7.5-3.1c4.9,0.1,7.3,2.2,7.7,5.8c-0.1,4.3-2.4,6.9-8.3,6.5
		c-3-0.3-5.3-0.9-6.8-1.9C59.6,46.8,60.6,44.2,62.9,41.5L62.9,41.5z"/>
	<path class="st0" d="M66.3,45l0.5,0.2c-0.1,0.3-0.2,0.6-0.4,0.7c-0.2,0.2-0.4,0.2-0.7,0.2c-0.4,0-0.6-0.1-0.9-0.4
		c-0.2-0.3-0.3-0.6-0.4-1.1c0-0.5,0.1-0.9,0.3-1.1c0.2-0.3,0.5-0.4,0.9-0.4c0.3,0,0.6,0.1,0.8,0.3c0.1,0.1,0.2,0.3,0.3,0.5l-0.5,0.1
		c0-0.1-0.1-0.3-0.2-0.4c-0.1-0.1-0.2-0.1-0.4-0.1c-0.2,0-0.4,0.1-0.5,0.2C65.1,44,65,44.3,65,44.6c0,0.4,0.1,0.6,0.2,0.8
		c0.1,0.2,0.3,0.2,0.5,0.2c0.1,0,0.3-0.1,0.4-0.2C66.2,45.4,66.3,45.2,66.3,45L66.3,45z"/>
	<path class="st0" d="M72.8,44.3l0.5,0.2c-0.1,0.3-0.2,0.6-0.4,0.7c-0.2,0.2-0.4,0.2-0.7,0.2c-0.4,0-0.6-0.1-0.9-0.4
		C71.1,44.8,71,44.5,71,44c0-0.5,0.1-0.9,0.3-1.1c0.2-0.3,0.5-0.4,0.9-0.4c0.3,0,0.6,0.1,0.8,0.3c0.1,0.1,0.2,0.3,0.3,0.5l-0.5,0.1
		c0-0.2-0.1-0.3-0.2-0.4C72.5,43,72.3,43,72.2,43c-0.2,0-0.4,0.1-0.5,0.2c-0.1,0.2-0.2,0.4-0.2,0.7c0,0.4,0.1,0.6,0.2,0.8
		c0.1,0.2,0.3,0.2,0.5,0.2c0.1,0,0.3-0.1,0.4-0.2C72.7,44.7,72.7,44.6,72.8,44.3L72.8,44.3z"/>
	<polygon class="st1" points="65.8,40.4 73.1,40.2 73.3,41.4 69.2,41.6 69.2,45.9 69.8,46.1 69.8,47.3 68.5,47.3 68.4,41.7 
		65.9,41.5 65.8,40.4 	"/>
	<path class="st1" d="M68.1,58.2L65.6,61l1.9,2.7L66,69.7l2.8,3.2l2.9-2.2L69.2,64l2.4-2.4L70,58.3L68.1,58.2L68.1,58.2z M68.1,59.3
		l1.6,0l1,2.3l-2.1,1.9l1.9,6.9l-1.7,1.3l-2-2.5l1.1-5.3l-1-2.6L68.1,59.3L68.1,59.3z"/>
	<path class="st2" d="M45.9,71.7l-11.5,0.7l-1.6-8.6l-4.9-5.2L30,58l3.3,3.8l5.3-1.2l-0.3-2.3L36,56l1.6-0.4l1.8,1.7h4.3l0.5-3.7
		l6.6-0.1l-0.1,1.3l-5.4,0.5l0.2,1.9l5.1,0.2l3-3.7l1.3,0.7L51.4,58l0.3,1.4l-1.5,0.4v-1.4l-4.3,0.6l-2.6,3.3l-8.5,0.5l0.6,7.4
		l9.2,0.2l-0.1-2.6l-1.3-0.3l0.1-1.6l2.1-0.2l0.3,2.1l2.7-0.2l0.4-2.2l1.3-0.2l0.3,4.9h5.7l0.2,1.2l-5.2,0.4l-0.2,0.9l-1.6-0.1
		L48.7,69h-2.5L45.9,71.7L45.9,71.7z M39.7,59.2l3.8-0.3l0.3,2l-3.6,0.4L39.7,59.2L39.7,59.2z"/>
	<polygon class="st2" points="60.3,53.6 56.1,54.2 56.5,58.7 58,58.4 57.8,55 61.7,54.7 60.3,53.6 	"/>
	<path class="st2" d="M116.6,57.9l-3.4,2.8V68l-1.7,0.6l-0.2,1.3l-6.8-0.2l-0.6-8.9l7.6-1.1l3.3-2.7L116.6,57.9L116.6,57.9z
		 M106.3,62.2l5-0.5l0.9,5.3l-6.4,0.8L106.3,62.2L106.3,62.2z"/>
	<polygon class="st2" points="87.3,67.8 94.2,67.3 93.7,62.4 96.7,57.3 97.4,58.5 96,60.5 95.1,63.3 95.9,67.3 94.9,69 87.3,69.6 
		87.3,67.8 	"/>
	<path class="st2" d="M80.1,67.6l3.8-0.7l0.3-2.9l-0.3-1.5l6.5-0.5l0.2,1l-5.2,0.6l-0.1,3.6l0.1,1.8l1.9,0.6L86,70.5l-1.3-0.6
		L84.4,68c0,0-2.7,0.3-3.3,0.6C80.4,68.8,80.1,67.6,80.1,67.6L80.1,67.6z"/>
	<polygon class="st2" points="103.5,67.6 97.4,68 96,63.2 96.9,59.6 99.2,59.1 104,59.1 104.5,60.8 103.3,60.9 102.9,60.1 
		98.5,60.4 97.2,63 98.2,67 103.2,66.6 103.5,67.6 	"/>
	<path class="st2" d="M79.6,56.6l0-1.7l6-0.2l3.1-3l2.8,2.4h9.4l3-3.9l1.2,0.6l-3.2,3.8l-0.4,3.4l-1.3,0.8l0-3.4l-7.5,0.3l-0.2,3
		l-1.2,0l-0.2-3.5l-2.5-1.9l-2.5,2.5l0.3,1.2l-1.1,0.1l0-1.3l-4.5,0.1C80.5,58.2,80.8,56.7,79.6,56.6L79.6,56.6z"/>
	<polygon class="st2" points="105.2,57.5 108.1,53.8 109.5,54.3 106.4,58.3 105.2,57.5 	"/>
</g>
</svg>
