<?xml version="1.0" encoding="utf-8"?>
<!-- Generator: Adobe Illustrator 21.1.0, SVG Export Plug-In . SVG Version: 6.00 Build 0)  -->
<svg version="1.1" id="Layer_1" xmlns="http://www.w3.org/2000/svg" xmlns:xlink="http://www.w3.org/1999/xlink" x="0px" y="0px"
	 width="235.3px" height="235.3px" viewBox="0 0 235.3 235.3" style="enable-background:new 0 0 235.3 235.3;" xml:space="preserve"
	>
<style type="text/css">
	.st0{fill:url(#SVGID_1_);}
	.st1{fill:#FFFFFF;}
</style>
<linearGradient id="SVGID_1_" gradientUnits="userSpaceOnUse" x1="117.6" y1="236.7" x2="117.6" y2="4.1" gradientTransform="matrix(1 0 0 -1 0 238)">
	<stop  offset="0" style="stop-color:#FBD965"/>
	<stop  offset="1" style="stop-color:#F37027"/>
</linearGradient>
<circle class="st0" cx="117.6" cy="117.6" r="116.3"/>
<g>
	<path class="st1" d="M73.5,34.9c0-0.5,0.3-0.5,0.5-0.5h8.8c0.3,0,0.4,0.2,0.4,0.3s0,0.1-0.1,0.2L82.6,37c-0.1,0.4-0.4,0.4-0.6,0.4
		h-5v14.1c0,0.2-0.1,0.5-0.5,0.5H74c-0.5,0-0.5-0.3-0.5-0.5V34.9L73.5,34.9z"/>
	<path class="st1" d="M94.4,51.6c0,0.2-0.1,0.5-0.5,0.5h-2.5c-0.5,0-0.5-0.3-0.5-0.5V34.9c0-0.5,0.3-0.5,0.5-0.5h4.2
		c1.2,0,2.8,0.1,4,0.7c1,0.6,2.1,1.7,2.1,4.2c0,3.4-2.2,5.7-5.9,5.7h-1.4L94.4,51.6L94.4,51.6z M94.4,42.2L94.4,42.2h0.8
		c1.5,0,3-0.2,3-2.7c0-2.4-1.7-2.4-2.6-2.4h-1.1v5.1H94.4z"/>
	<path class="st1" d="M113.6,47.1c-0.2,0-0.3-0.1-0.3-0.2l-4.4-11.8c-0.1-0.2-0.1-0.3-0.1-0.4c0-0.2,0.2-0.3,0.8-0.3l2.3-0.2
		c0.7-0.1,0.7,0,0.9,0.5l2,6.2c0.4,1.2,0.6,2.1,1.1,3.7h0.1c0.4-1.9,0.6-2.6,0.9-3.7l1.6-6.2c0.1-0.3,0.1-0.6,0.6-0.6l2.4,0.3
		c0.2,0,0.5,0,0.5,0.3c0,0.1,0,0.1-0.1,0.4l-4,13.8c-0.2,0.8-0.7,2-1.4,2.6c-0.6,0.5-1.5,0.9-2.8,0.9c-0.9,0-1.9-0.2-2.9-0.6
		c-0.8-0.3-0.7-0.5-0.6-0.8l0.8-1.9c0.1-0.1,0.2-0.2,0.3-0.2c0.1,0,0.2,0.1,0.4,0.2c0.6,0.4,1.1,0.5,1.6,0.5c1.5,0,1.9-1.3,2-1.8
		l0.2-0.9h-1.9V47.1z"/>
	<path class="st1" d="M133.3,51.6c0,0.2-0.1,0.5-0.5,0.5h-2.5c-0.5,0-0.5-0.3-0.5-0.5V34.9c0-0.5,0.3-0.5,0.5-0.5H141
		c0.5,0,0.5,0.3,0.5,0.5v16.7c0,0.5-0.3,0.5-0.5,0.5h-2.5c-0.5,0-0.5-0.3-0.5-0.5V37.2h-4.7V51.6L133.3,51.6z"/>
	<path class="st1" d="M154.8,51.6c0,0.2-0.1,0.5-0.5,0.5h-2.5c-0.5,0-0.5-0.3-0.5-0.5V34.9c0-0.5,0.3-0.5,0.5-0.5h10.7
		c0.5,0,0.5,0.3,0.5,0.5v16.7c0,0.5-0.3,0.5-0.5,0.5H160c-0.5,0-0.5-0.3-0.5-0.5V37.2h-4.7V51.6L154.8,51.6z"/>
	<path class="st1" d="M77.5,200.1c0.1,0.1,0.1,0.1,0.1,0.2c0,0.1-0.1,0.2-0.2,0.2c-0.4,0.4-1.2,0.6-2,0.6c-2.9,0-3.3-2.6-3.3-4.5
		c0-3.9,1.9-4.7,3.2-4.7c0.6,0,1.4,0.2,1.9,0.6c0.2,0.1,0.2,0.3,0.2,0.3c0,0.1,0,0.1-0.1,0.2l-0.5,0.7c0,0.1-0.1,0.1-0.1,0.1
		c-0.1,0-0.2-0.1-0.3-0.1c-0.3-0.3-0.7-0.5-1.1-0.5s-0.8,0.2-1,0.4c-0.4,0.4-0.5,1.1-0.5,2.8c0,0.6,0,2,0.5,2.6
		c0.2,0.3,0.5,0.5,1.1,0.5c0.4,0,0.7-0.1,1-0.3c0.1-0.1,0.2-0.2,0.3-0.2c0.1,0,0.1,0.1,0.2,0.1L77.5,200.1L77.5,200.1z"/>
	<path class="st1" d="M85.8,200.7c0,0.2-0.1,0.3-0.3,0.3h-1.2c-0.2,0-0.3-0.1-0.3-0.3v-6.9h-1.7c-0.2,0-0.2-0.1-0.2-0.2v-1.1
		c0-0.1,0-0.2,0.2-0.2h5.4c0.3,0,0.2,0.2,0.2,0.3l-0.3,1c-0.1,0.2-0.2,0.2-0.3,0.2h-1.6v6.9H85.8z"/>
	<path class="st1" d="M97.7,200.1c0.1,0.1,0.1,0.1,0.1,0.2c0,0.1-0.1,0.2-0.2,0.2c-0.4,0.4-1.2,0.6-2,0.6c-2.9,0-3.3-2.6-3.3-4.5
		c0-3.9,1.9-4.7,3.2-4.7c0.6,0,1.4,0.2,1.9,0.6c0.2,0.1,0.2,0.3,0.2,0.3c0,0.1,0,0.1-0.1,0.2l-0.5,0.7c0,0.1-0.1,0.1-0.1,0.1
		c-0.1,0-0.2-0.1-0.3-0.1c-0.3-0.3-0.6-0.5-1.1-0.5c-0.4,0-0.8,0.2-1,0.4c-0.4,0.4-0.5,1.1-0.5,2.8c0,0.6,0,2,0.5,2.6
		c0.2,0.3,0.5,0.5,1.1,0.5c0.4,0,0.7-0.1,1-0.3c0.1-0.1,0.2-0.2,0.3-0.2c0.1,0,0.1,0.1,0.2,0.1L97.7,200.1L97.7,200.1z"/>
	<path class="st1" d="M111,192.5c0-0.2,0.1-0.3,0.3-0.3h4.3c0.2,0,0.2,0.1,0.2,0.2v0.1l-0.3,1c0,0.2-0.2,0.2-0.3,0.2h-2.5v6.9
		c0,0.1,0,0.3-0.3,0.3h-1.2c-0.2,0-0.3-0.1-0.3-0.3v-8.1H111z"/>
	<path class="st1" d="M123.2,200.7c0,0.1,0,0.3-0.2,0.3h-1.2c-0.2,0-0.3-0.1-0.3-0.3v-8.2c0-0.2,0.1-0.3,0.3-0.3h2.1
		c0.6,0,1.4,0,1.9,0.4c0.5,0.3,1,0.8,1,2.1c0,1.7-1.1,2.8-2.9,2.8h-0.7L123.2,200.7L123.2,200.7z M123.2,196.1L123.2,196.1h0.4
		c0.7,0,1.5-0.1,1.5-1.3s-0.8-1.2-1.3-1.2h-0.6V196.1L123.2,196.1z"/>
	<path class="st1" d="M134.5,198.5c-0.1,0-0.1-0.1-0.2-0.1l-2.2-5.8c0-0.1-0.1-0.2-0.1-0.2c0-0.1,0.1-0.1,0.4-0.2l1.1-0.1
		c0.4,0,0.3,0,0.4,0.2l1,3c0.2,0.6,0.3,1,0.5,1.8l0,0c0.2-0.9,0.3-1.3,0.4-1.8l0.8-3c0-0.2,0.1-0.3,0.3-0.3l1.2,0.1
		c0.1,0,0.3,0,0.3,0.2c0,0,0,0.1-0.1,0.2l-2,6.8c-0.1,0.4-0.3,1-0.7,1.3c-0.3,0.2-0.7,0.4-1.4,0.4c-0.5,0-0.9-0.1-1.4-0.3
		c-0.4-0.2-0.4-0.2-0.3-0.4l0.4-1c0-0.1,0.1-0.1,0.1-0.1c0.1,0,0.1,0,0.2,0.1c0.3,0.2,0.6,0.3,0.8,0.3c0.7,0,0.9-0.6,1-0.9l0.1-0.4
		h-0.6V198.5z"/>
	<path class="st1" d="M146,200.7c0,0.1,0,0.3-0.3,0.3h-1.2c-0.2,0-0.3-0.1-0.3-0.3v-8.2c0-0.2,0.1-0.3,0.3-0.3h5.2
		c0.2,0,0.3,0.1,0.3,0.3v8.2c0,0.2-0.1,0.3-0.3,0.3h-1.2c-0.2,0-0.3-0.1-0.3-0.3v-7.1H146V200.7L146,200.7z"/>
	<path class="st1" d="M158.5,200.7c0,0.1,0,0.3-0.3,0.3H157c-0.2,0-0.3-0.1-0.3-0.3v-8.2c0-0.2,0.1-0.3,0.3-0.3h5.2
		c0.2,0,0.3,0.1,0.3,0.3v8.2c0,0.2-0.1,0.3-0.3,0.3H161c-0.2,0-0.3-0.1-0.3-0.3v-7.1h-2.3v7.1H158.5z"/>
	<polygon class="st1" points="72.4,74.9 72.4,179.3 96.3,179.3 96.3,147.2 88.4,147.2 88.4,171.4 80.2,171.4 80.2,82.7 88.4,82.7 
		88.4,106.9 96.3,106.9 96.3,74.9 	"/>
	<polygon class="st1" points="139.2,74.9 139.2,179.3 163.1,179.3 163.1,147.2 155.3,147.2 155.3,171.4 147.1,171.4 147.1,82.7 
		155.3,82.7 155.3,106.9 163.1,106.9 163.1,74.9 	"/>
	<g>
		<polygon class="st1" points="124.9,132.2 123.8,119.8 112.2,131.2 111,145.8 		"/>
		<polygon class="st1" points="113,120.6 123.1,110.8 122.3,101.5 113.9,109.7 		"/>
		<polygon class="st1" points="126.3,74.3 115.9,84.5 114.7,99.2 121.5,92.5 120.8,84.1 127.2,74.3 		"/>
		<polygon class="st1" points="116.7,74 109.8,73.8 112.4,78.2 		"/>
		<polygon class="st1" points="115.5,172.7 118.5,178.9 126.1,162.3 		"/>
		<polygon class="st1" points="112.3,166.1 126.5,152.2 125.6,141.2 110.2,156.3 109.8,160.8 		"/>
	</g>
	<polygon class="st1" points="163.1,68.1 72.4,68.1 72.4,57.5 163.1,57.5 	"/>
</g>
</svg>
