<?xml version="1.0" encoding="iso-8859-1"?>
<!-- Generator: Adobe Illustrator 16.0.0, SVG Export Plug-In . SVG Version: 6.00 Build 0)  -->
<!DOCTYPE svg PUBLIC "-//W3C//DTD SVG 1.1//EN" "http://www.w3.org/Graphics/SVG/1.1/DTD/svg11.dtd">
<svg version="1.1" id="Capa_1" xmlns="http://www.w3.org/2000/svg" xmlns:xlink="http://www.w3.org/1999/xlink" x="0px" y="0px"
	 width="65.812px" height="65.813px" viewBox="0 0 65.812 65.813" style="enable-background:new 0 0 65.812 65.813; color: #7abf18"
	 xml:space="preserve">
<g>
	<g>
		<path d="M9.625,2.969H1c-0.552,0-1,0.447-1,1c0,0.554,0.448,1,1,1h8.625c0.552,0,1-0.446,1-1
			C10.625,3.416,10.177,2.969,9.625,2.969z"/>
		<path d="M9.625,59.844H1c-0.552,0-1,0.447-1,1c0,0.555,0.448,1,1,1h8.625c0.552,0,1-0.445,1-1
			C10.625,60.292,10.177,59.844,9.625,59.844z"/>
		<path d="M2.582,54.886c-0.391-0.394-1.023-0.394-1.414,0c-0.391,0.392-0.391,1.021,0,1.414l3.219,3.22
			c0.195,0.194,0.451,0.293,0.707,0.293s0.513-0.099,0.707-0.293l0.218-0.22c0.001,0,0.001,0,0.003-0.002l2.968-2.97
			c0.391-0.391,0.391-1.021,0-1.412c-0.392-0.393-1.023-0.393-1.414,0l-1.262,1.263V8.633l1.401,1.402
			c0.195,0.195,0.451,0.293,0.707,0.293c0.256,0,0.512-0.098,0.707-0.293c0.391-0.392,0.391-1.023,0-1.414L6.02,5.512
			C5.928,5.419,5.818,5.346,5.695,5.295c-0.244-0.101-0.521-0.101-0.765,0C4.807,5.346,4.698,5.419,4.605,5.512L1.261,8.856
			c-0.391,0.391-0.391,1.022,0,1.413c0.195,0.195,0.451,0.294,0.707,0.294s0.513-0.099,0.707-0.294l1.638-1.637v47.983L2.582,54.886
			z"/>
		<path d="M36.875,54.415v-2.57h4.5c0.553,0,1-0.445,1-1c0-0.553-0.447-1-1-1h-4.5V37.219h8.25v6.75c0,0.555,0.449,1,1,1
			c0.553,0,1-0.445,1-1v-40c0-0.553-0.447-1-1-1H14c-0.552,0-1,0.447-1,1v56.875c0,0.555,0.448,1,1,1h10.25c0.552,0,1-0.445,1-1v-9
			h9.625v2.57c0,0.555,0.449,1,1,1C36.427,55.415,36.875,54.969,36.875,54.415z M36.875,35.219V21.344h8.25v13.875H36.875z
			 M45.125,19.344h-8.25V4.969h8.25V19.344z M34.875,19.344H25.25V4.969h9.625V19.344z M23.25,19.344H15V4.969h8.25V19.344z
			 M15,37.219h8.25v12.625H15V37.219z M15,35.219V21.344h8.25v13.875H15z M25.25,21.344h9.625v13.875H25.25V21.344z M23.25,59.844
			H15v-8h8.25V59.844z M25.25,49.844V37.219h9.625v12.625H25.25z"/>
		<path d="M65.195,33.36c-0.244-0.103-0.521-0.103-0.767,0c-0.123,0.051-0.231,0.123-0.323,0.217l-27.562,27.56
			c-0.094,0.093-0.166,0.203-0.219,0.326c-0.101,0.243-0.101,0.521,0,0.764c0.104,0.244,0.297,0.438,0.541,0.541
			c0.123,0.052,0.252,0.076,0.383,0.076h27.564c0.551,0,1-0.446,1-1V34.282c0-0.129-0.027-0.26-0.078-0.381
			C65.635,33.655,65.439,33.461,65.195,33.36z M63.812,36.696v24.147H39.664L63.812,36.696z"/>
		<path d="M60,46.979c0-0.132-0.027-0.261-0.076-0.384c-0.102-0.244-0.297-0.438-0.541-0.541s-0.52-0.103-0.764,0
			c-0.123,0.052-0.234,0.125-0.326,0.218l-8.307,8.307c-0.095,0.094-0.166,0.203-0.218,0.326c-0.104,0.244-0.104,0.521,0,0.766
			c0.101,0.242,0.296,0.438,0.541,0.541c0.119,0.051,0.253,0.074,0.382,0.074H59c0.551,0,1-0.443,1-1
			c0-0.154-0.045-0.303-0.111-0.437C59.955,54.716,60,54.573,60,54.413V46.979L60,46.979z M58,54.286h-4.893L58,49.39V54.286z"/>
	</g>
</g>
<g>
</g>
<g>
</g>
<g>
</g>
<g>
</g>
<g>
</g>
<g>
</g>
<g>
</g>
<g>
</g>
<g>
</g>
<g>
</g>
<g>
</g>
<g>
</g>
<g>
</g>
<g>
</g>
<g>
</g>
</svg>
